<svg class="svg-icon" style="width: 1em;height: 1em;vertical-align: middle;fill: currentColor;overflow: hidden;" viewBox="0 0 1024 1024" version="1.1" xmlns="http://www.w3.org/2000/svg"><path fill="#303030" d="M512 62C263.48 62 62 263.47 62 512c0 248.52 201.48 450 450 450 248.53 0 450-201.48 450-450 0-248.53-201.47-450-450-450z m37.5 649.99c0 20.72-16.79 37.5-37.5 37.5s-37.5-16.78-37.5-37.5V512c0-20.72 16.79-37.5 37.5-37.5s37.5 16.78 37.5 37.5v199.99zM512 412c-41.42 0-75-33.58-75-75 0-41.43 33.58-75 75-75s75 33.57 75 75c0 41.42-33.58 75-75 75z"  /></svg>